<svg id="Layer_1" data-name="Layer 1" xmlns="http://www.w3.org/2000/svg" xmlns:xlink="http://www.w3.org/1999/xlink" viewBox="0 0 140 52"><defs><style>.cls-1,.cls-11,.cls-14,.cls-15,.cls-7,.cls-8,.cls-9{fill:none;}.cls-2{fill:#1a345f;}.cls-3{fill:#f7fcfe;}.cls-4,.cls-5{fill:#164b99;}.cls-5,.cls-9{stroke:#1a345f;}.cls-5,.cls-7{stroke-width:0.5px;}.cls-6{fill:#13487f;}.cls-11,.cls-12,.cls-15,.cls-7,.cls-8{stroke:#164b99;}.cls-15,.cls-7,.cls-9{stroke-linecap:round;}.cls-7,.cls-9{stroke-linejoin:round;}.cls-8{stroke-width:0.4px;}.cls-10{fill:#ceddf1;}.cls-11,.cls-15{stroke-width:0.25px;}.cls-12{fill:#fff;stroke-width:2px;}.cls-13{clip-path:url(#clip-path);}.cls-14{stroke:#d7ebf9;}</style><clipPath id="clip-path"><rect class="cls-1" x="21" y="30.75" width="14.7" height="14.7"/></clipPath></defs><path class="cls-2" d="M36.4,48.26c3.11-2.49,3.73-3.11,5-6.23H38.26l-5.6,6.23Z"/><path class="cls-3" d="M13.37,20.07c-5,7.41-5.6,11.73-3.73,18.51L7.77,40.06l10.58,1.61,19.91-.62H95.51l21.78-.61,11.83-3.09a27.07,27.07,0,0,0,3.11-7.4l-.62-2.47A48.85,48.85,0,0,0,131,16.37l-3.12-1.24-7.46-5.55,3.12-2.7s-9.47-1-31.75-2.24-28,1.24-28,1.24l-8.72,4.7L44.31,16.92C31.64,17.52,27.68,17.6,13.37,20.07Z"/><path class="cls-2" d="M100,48.26c-3.11-2.49-3.73-3.13-5-6.24H98.1l5.6,6.24Z"/><path class="cls-4" d="M100.87,34.18C67.57,36.25,9,37.31,9,37.31l.52,1.38L7.9,40.21,19,42.29H95.51l20.54-.88,13.07-4.1L131.61,33l.62-3.12L131.61,28l-11.2,3.12A153.92,153.92,0,0,1,100.87,34.18Z"/><path class="cls-5" d="M63.9,6.11h0l0,0-.16.09-.6.34L60.93,7.82l-6.66,3.81c-2.47,1.4-5,2.81-7,3.92-1,.55-1.88,1-2.56,1.38l-.31.16,41.14-1.21h0l41.6-.61-6.93-5.21L120,9.89l-4.66-3.5h-.18l-.73,0-2.64-.17c-2.21-.14-5.22-.33-8.42-.51C97,5.27,89.82,4.89,86.8,4.89h0a107.36,107.36,0,0,0-18.47.25,25.9,25.9,0,0,0-3.51.66,6.29,6.29,0,0,0-.72.23l-.16.06Zm52.35.35,4.1,3.08L123,7Z"/><path class="cls-6" d="M69.26,16.28c2.7-.08,3.18-.11,6-.25,0,0,1.12-1.37.91-2.4s-2.42-1.86-3.6-1.35a1.91,1.91,0,0,0-.32.16,3.35,3.35,0,0,0-.73.54A11.23,11.23,0,0,0,69.26,16.28Z"/><path class="cls-6" d="M69.26,16.28c2.7-.08,3.18-.11,6-.25,0,0,1.12-1.37.91-2.4s-2.42-1.86-3.6-1.35a1.91,1.91,0,0,0-.32.16,3.35,3.35,0,0,0-.73.54A11.23,11.23,0,0,0,69.26,16.28Z"/><path class="cls-6" d="M69.26,16.28c2.7-.08,3.18-.11,6-.25,0,0,1.12-1.37.91-2.4s-2.42-1.86-3.6-1.35a1.91,1.91,0,0,0-.32.16,3.35,3.35,0,0,0-.73.54A11.23,11.23,0,0,0,69.26,16.28Z"/><path class="cls-6" d="M98.85,15.86c2.62-.1,2.24,0,5-.14,0,0,.9-1.41.76-2.13s-2.72-1.49-3.14-1.31a2.39,2.39,0,0,0-.32.16,3.35,3.35,0,0,0-.73.54A9.08,9.08,0,0,0,98.85,15.86Z"/><path class="cls-6" d="M98.85,15.86c2.62-.1,2.24,0,5-.14,0,0,.9-1.41.76-2.13s-2.72-1.49-3.14-1.31a2.39,2.39,0,0,0-.32.16,3.35,3.35,0,0,0-.73.54A9.08,9.08,0,0,0,98.85,15.86Z"/><path class="cls-6" d="M98.85,15.86c2.62-.1,2.24,0,5-.14,0,0,.9-1.41.76-2.13s-2.72-1.49-3.14-1.31a2.39,2.39,0,0,0-.32.16,3.35,3.35,0,0,0-.73.54A9.08,9.08,0,0,0,98.85,15.86Z"/><path class="cls-2" d="M83.23,4.29H79.31L72,16.54h5.88Z"/><path class="cls-2" d="M98.91,5.27h3.43l5.39,10.29h-4.9Z"/><path class="cls-7" d="M115.43,41.41l13.69-3.74a27.36,27.36,0,0,0,3.11-7.48l-.62-2.49A49.82,49.82,0,0,0,131,16.48l-3.12-1.24-7.46-5.61,3.12-2.73s-9.47-1-31.75-2.25-28,1.24-28,1.24l-8.72,4.75L44.31,17c-12.67.61-16.63.69-30.94,3.18-5,7.48-5.6,11.84-3.73,18.7L7.77,40.16,18.35,42"/><ellipse class="cls-4" cx="70" cy="48.39" rx="62.23" ry="0.98"/><path class="cls-8" d="M9.42,37.12c76.48-.59,106.07-3.31,122-9.15M15.24,22.09c30.41-2.39,55.53-3.34,113.88-4.36"/><path class="cls-9" d="M129.12,37.93l-14.94,4.36m-18.39.36H37.64M7.77,40.42l11.82,2.5"/><path class="cls-10" d="M39.82,26l-2.39,1.94a1,1,0,0,0-.16,1.37,15.42,15.42,0,0,1,2.57,5.06,1,1,0,0,0,1.51.56l1-.67A7.79,7.79,0,0,1,46.1,33c16.73-1.25,27.32-1.65,44.59-1.7a4.91,4.91,0,0,0,4.52-3l1.66-4A1,1,0,0,0,96,22.91c-20.53,0-32.73.47-53.41,2A4.8,4.8,0,0,0,39.82,26Z"/><path class="cls-11" d="M74.36,16.12l-1.25,2.5c-2,3.7-2,7.11-1.24,16.82M47.6,16.75a9.67,9.67,0,0,0-4.36,6.85c-.62,4.36-.62,5.61.62,13.09m61.42-20.57c-1.21,5.6-4,14.22-4,14.22"/><ellipse class="cls-12" cx="28.31" cy="38.29" rx="9.96" ry="9.97"/><g class="cls-13"><path class="cls-4" d="M28.35,45.45A7.35,7.35,0,1,1,35.7,38.1,7.35,7.35,0,0,1,28.35,45.45Z"/></g><path class="cls-14" d="M28.31,41.25v5.58"/><path class="cls-14" d="M30.54,40.14l4.25,3.48"/><path class="cls-14" d="M31.1,37.66l5.3-1.25"/><path class="cls-14" d="M29.55,35.66l2.35-5"/><path class="cls-14" d="M27.07,35.66l-2.36-5"/><path class="cls-14" d="M25.52,37.66l-5.3-1.25"/><path class="cls-14" d="M26.07,40.14l-4.25,3.48"/><path class="cls-15" d="M74.41,16.05,80.78,4.78"/><path class="cls-15" d="M105.28,15.56l-4.41-9.8"/><ellipse class="cls-12" cx="107.89" cy="38.29" rx="9.96" ry="9.97"/><path class="cls-4" d="M107.73,45.45a7.35,7.35,0,1,1,7.35-7.35A7.35,7.35,0,0,1,107.73,45.45Z"/><path class="cls-14" d="M107.89,41.25v5.58"/><path class="cls-14" d="M110.12,40.14l4.25,3.48"/><path class="cls-14" d="M110.68,37.66l5.3-1.25"/><path class="cls-14" d="M109.14,35.66l2.35-5"/><path class="cls-14" d="M106.65,35.66l-2.36-5"/><path class="cls-14" d="M105.11,37.66,99.8,36.41"/><path class="cls-14" d="M105.66,40.14l-4.26,3.48"/></svg>